<svg width="104" height="104" viewBox="0 0 104 104" fill="none" xmlns="http://www.w3.org/2000/svg">
<path d="M58.5 87.75V16.25C58.5 15.388 58.1576 14.5614 57.5481 13.9519C56.9386 13.3424 56.112 13 55.25 13H16.25C15.388 13 14.5614 13.3424 13.9519 13.9519C13.3424 14.5614 13 15.388 13 16.25V87.75" stroke="#6E00FF" stroke-width="3" stroke-linecap="round" stroke-linejoin="round"/>
<path d="M91 87.75V42.25C91 41.388 90.6576 40.5614 90.0481 39.9519C89.4386 39.3424 88.612 39 87.75 39H58.5" stroke="#6E00FF" stroke-width="3" stroke-linecap="round" stroke-linejoin="round"/>
<path d="M26 29.25H39" stroke="#6E00FF" stroke-width="3" stroke-linecap="round" stroke-linejoin="round"/>
<path d="M32.5 55.25H45.5" stroke="#6E00FF" stroke-width="3" stroke-linecap="round" stroke-linejoin="round"/>
<path d="M26 71.5H39" stroke="#6E00FF" stroke-width="3" stroke-linecap="round" stroke-linejoin="round"/>
<path d="M71.5 71.5H78" stroke="#6E00FF" stroke-width="3" stroke-linecap="round" stroke-linejoin="round"/>
<path d="M71.5 55.25H78" stroke="#6E00FF" stroke-width="3" stroke-linecap="round" stroke-linejoin="round"/>
</svg>
