<svg width="67" height="70" viewBox="0 0 67 70" fill="none" xmlns="http://www.w3.org/2000/svg">
<path d="M42.201 65.0861V47.6024C42.201 46.8295 41.8972 46.0884 41.3564 45.5419C40.8155 44.9954 40.082 44.6884 39.3171 44.6884H27.7816C27.0168 44.6884 26.2832 44.9954 25.7424 45.5419C25.2016 46.0884 24.8977 46.8295 24.8977 47.6024V65.0861C24.8977 65.8589 24.5939 66.6001 24.0531 67.1465C23.5122 67.693 22.7787 68 22.0138 68H4.71054C3.94569 68 3.21216 67.693 2.67133 67.1465C2.1305 66.6001 1.82666 65.8589 1.82666 65.0861V31.3935C1.83312 30.9903 1.91937 30.5924 2.08033 30.2233C2.2413 29.8542 2.47372 29.5214 2.76392 29.2445L31.6028 2.76399C32.1344 2.27255 32.8288 2 33.5494 2C34.2699 2 34.9644 2.27255 35.496 2.76399L64.3348 29.2445C64.625 29.5214 64.8575 29.8542 65.0184 30.2233C65.1794 30.5924 65.2656 30.9903 65.2721 31.3935V65.0861C65.2721 65.8589 64.9683 66.6001 64.4274 67.1465C63.8866 67.693 63.1531 68 62.3882 68H45.0849C44.3201 68 43.5865 67.693 43.0457 67.1465C42.5049 66.6001 42.201 65.8589 42.201 65.0861Z" stroke="#6E00FF" stroke-width="3" stroke-linecap="round" stroke-linejoin="round"/>
</svg>
