<?xml version="1.0" encoding="UTF-8"?>
<svg version="1.1" xmlns="http://www.w3.org/2000/svg" width="41" height="41">
<path d="M0 0 C10.23 0 20.46 0 31 0 C31 1.98 31 3.96 31 6 C20.77 6 10.54 6 0 6 C0 4.02 0 2.04 0 0 Z " fill="#A1A1A1" transform="translate(5,27)"/>
<path d="M0 0 C10.23 0 20.46 0 31 0 C31 1.98 31 3.96 31 6 C20.77 6 10.54 6 0 6 C0 4.02 0 2.04 0 0 Z " fill="#A1A1A1" transform="translate(5,17)"/>
<path d="M0 0 C13.53 0 27.06 0 41 0 C41 13.53 41 27.06 41 41 C27.47 41 13.94 41 0 41 C0 27.47 0 13.94 0 0 Z M1 1 C1 13.87 1 26.74 1 40 C13.87 40 26.74 40 40 40 C40 27.13 40 14.26 40 1 C27.13 1 14.26 1 1 1 Z " fill="#A2A2A2" transform="translate(0,0)"/>
<path d="M0 0 C10.23 0 20.46 0 31 0 C31 1.65 31 3.3 31 5 C20.77 5 10.54 5 0 5 C0 3.35 0 1.7 0 0 Z " fill="#A2A2A2" transform="translate(5,8)"/>
</svg>
