<svg width="20" height="16" viewBox="0 0 20 16" fill="none" xmlns="http://www.w3.org/2000/svg">
<path d="M17.125 0H2.875C2.24532 0.000721921 1.64162 0.269135 1.19637 0.746344C0.751112 1.22355 0.500674 1.87058 0.5 2.54545V13.4545C0.500674 14.1294 0.751112 14.7764 1.19637 15.2537C1.64162 15.7309 2.24532 15.9993 2.875 16H17.125C17.7547 15.9993 18.3584 15.7309 18.8036 15.2537C19.2489 14.7764 19.4993 14.1294 19.5 13.4545V2.54545C19.4993 1.87058 19.2489 1.22355 18.8036 0.746344C18.3584 0.269135 17.7547 0.000721921 17.125 0ZM16.5236 4.21045L10.4165 9.30136C10.2974 9.40059 10.1508 9.45445 10 9.45445C9.84916 9.45445 9.70262 9.40059 9.58353 9.30136L3.47638 4.21045C3.40463 4.15238 3.34436 4.0796 3.29908 3.99634C3.2538 3.91309 3.22441 3.82102 3.21261 3.72548C3.20082 3.62995 3.20685 3.53285 3.23037 3.43984C3.25389 3.34683 3.29443 3.25975 3.34962 3.18367C3.40481 3.1076 3.47356 3.04403 3.55187 2.99668C3.63018 2.94932 3.71649 2.91912 3.80578 2.90782C3.89508 2.89653 3.98558 2.90436 4.07202 2.93088C4.15846 2.95739 4.23913 3.00206 4.30933 3.06227L10 7.80591L15.6907 3.06227C15.833 2.9471 16.0118 2.89659 16.1886 2.92166C16.3654 2.94673 16.5259 3.04536 16.6353 3.19624C16.7448 3.34711 16.7944 3.5381 16.7735 3.72789C16.7526 3.91769 16.6628 4.09104 16.5236 4.21045Z" fill="#6E00FF"/>
</svg>
